PathFileType	4	(X/Y/Z)	E:\Marcel_BSc\Ayumi_22_01_2025\22-01-2025\conv_dl_0.trc
DataRate	CameraRate	NumFrames	NumMarkers	Units	OrigDataRate	OrigDataStartFrame	OrigNumFrames
200.0	200.0	4	47	mm	200.0	1175	2348	
Frame#	Time	FHD			LBHD			RBHD			RBAR			LBAR			RSACR			LSACR			USACR			C7			CLAV			T10			RSHO			LSHO			LTHI1			LTHI3			LTHI2			LTIB1			LTIB2			LTIB3			LMMAL			LLMAL			LHEE			LMT1			LMT5			LMT3			RTHI1			RTHI2			RTHI3			RTIB1			RTIB3			RTIB2			RLMAL			RMMAL			RHEE			RMT5			RMT1			RMT3			LMUPA			LDUPA			LUUPA			LRAD			RUL			RRAD			RUFIN			RMUPA			RDUPA			RUUPA			
		X1	Y1	Z1	X2	Y2	Z2	X3	Y3	Z3	X4	Y4	Z4	X5	Y5	Z5	X6	Y6	Z6	X7	Y7	Z7	X8	Y8	Z8	X9	Y9	Z9	X10	Y10	Z10	X11	Y11	Z11	X12	Y12	Z12	X13	Y13	Z13	X14	Y14	Z14	X15	Y15	Z15	X16	Y16	Z16	X17	Y17	Z17	X18	Y18	Z18	X19	Y19	Z19	X20	Y20	Z20	X21	Y21	Z21	X22	Y22	Z22	X23	Y23	Z23	X24	Y24	Z24	X25	Y25	Z25	X26	Y26	Z26	X27	Y27	Z27	X28	Y28	Z28	X29	Y29	Z29	X30	Y30	Z30	X31	Y31	Z31	X32	Y32	Z32	X33	Y33	Z33	X34	Y34	Z34	X35	Y35	Z35	X36	Y36	Z36	X37	Y37	Z37	X38	Y38	Z38	X39	Y39	Z39	X40	Y40	Z40	X41	Y41	Z41	X42	Y42	Z42	X43	Y43	Z43	X44	Y44	Z44	X45	Y45	Z45	X46	Y46	Z46	X47	Y47	Z47	
1175	5.865	-24.179964	1382.6064	-676.06873	-17.081707	1371.3754	-606.9856	18.505865	1337.4165	-736.83173	313.65878	485.06055	-1733.8312	198.00894	554.66406	484.54337	518.29541	961.22968	-650.15198	512.02264	964.02667	-577.11523	506.79654	971.18488	-615.10083	130.45828	1216.9419	-630.55963	89.941566	1067.4435	-639.5307	364.57263	1096.4017	-625.52509	83.168449	1077.2076	-788.48657	76.088493	1082.8639	-470.3967	394.06253	595.75092	-411.74225	384.34729	531.82581	-425.0899	340.17987	555.83478	-414.88962	312.04071	239.0377	-412.79285	363.36737	234.93533	-412.92053	333.67261	176.79425	-418.74371	327.90237	72.835556	-502.7789	350.29425	71.854118	-429.58237	388.0332	35.817822	-472.88556	190.83656	44.574139	-450.72324	222.2749	28.36965	-376.40024	194.24883	41.986786	-415.84552	418.27209	587.35345	-810.65118	363.17123	551.90588	-813.66064	404.69962	525.59467	-796.83466	324.76483	276.22891	-814.04382	342.48282	214.23363	-801.91895	375.17578	270.78156	-806.7287	346.52554	72.778435	-775.83826	308.93558	82.037453	-708.53186	384.76953	31.530048	-729.75183	211.3587	29.996138	-817.7467	182.68024	44.025131	-756.38715	190.2325	40.308994	-787.81329	182.22029	916.69629	-403.46973	227.6133	932.26685	-388.75827	163.18881	975.4906	-409.09689	262.72562	605.4541	-344.84909	222.87212	586.26428	-902.33344	221.69221	581.14398	-839.099	224.41	507.25781	-839.71655	161.50516	984.88428	-855.83801	180.22911	926.4187	-867.67957	207.37662	1001.0625	-864.96216
1176	5.87	-20.891605	1387.3284	-675.8476	-13.88077	1376.0754	-606.7193	21.421812	1342.1454	-736.63757	314.12674	488.05753	-1733.6736	196.96553	557.79004	484.58536	518.36499	961.32507	-650.34235	512.06604	964.22107	-577.32556	506.81879	971.41071	-615.32025	132.29808	1220.7118	-630.80261	91.372025	1071.0203	-639.73718	365.86777	1097.7355	-625.59039	84.361916	1081.0073	-788.54877	77.482941	1086.9324	-470.24789	394.40656	596.39355	-411.83951	384.38666	531.96851	-425.38919	340.08142	555.83453	-414.99124	312.14392	239.05016	-412.78851	363.45551	235.00821	-413.00732	333.73965	176.81767	-418.74149	327.879	72.86824	-502.77502	350.30133	71.834488	-429.62485	388.02014	35.829624	-472.90311	190.87355	44.571949	-450.66324	222.26814	28.362553	-376.36075	194.28685	41.969238	-415.82361	417.30124	588.1319	-810.58759	362.64139	552.03723	-813.73041	404.18765	525.88269	-796.8219	324.50159	276.21982	-814.02539	342.33759	214.23245	-801.8598	374.1506	270.99545	-806.76111	346.45218	72.822769	-775.82129	308.91269	81.987816	-708.4906	384.77014	31.524345	-729.75885	211.35484	29.98344	-817.75201	182.6675	44.03611	-756.38696	190.50481	39.977379	-787.79102	182.69508	920.13696	-403.49167	228.18834	935.52039	-388.7793	163.9727	979.06281	-409.1026	262.55893	608.8396	-344.85162	222.82806	589.40302	-902.31586	221.62671	584.11938	-839.70538	224.12651	510.3259	-839.66388	162.37822	988.2049	-855.53021	180.85159	929.66412	-867.64301	208.20195	1004.3031	-864.93976
1177	5.875	-17.675938	1392.1903	-675.5191	-10.746559	1380.7377	-606.45544	24.454103	1346.8365	-736.40277	314.57388	491.39221	-1733.3744	195.96938	561.02271	484.71249	518.28729	961.56488	-650.59546	512.0686	964.42297	-577.5387	506.7756	971.7132	-615.55237	135.1055	1224.0659	-630.56189	92.309204	1074.9648	-639.68341	367.06876	1099.2419	-625.67682	85.6315	1084.7776	-788.62085	78.878433	1091.075	-470.06302	394.18085	596.63055	-412.1774	384.34918	532.13104	-425.63531	339.99533	555.85303	-415.05618	312.31549	239.02229	-412.67969	363.53662	235.03218	-413.11545	333.72388	176.56662	-418.79517	327.84003	72.871765	-502.76627	350.30927	71.82708	-429.64566	388.02774	35.830051	-472.89883	190.92216	44.551395	-450.60916	222.28575	28.356783	-376.31735	194.30939	41.942719	-415.79562	416.6665	588.41608	-810.55798	362.15286	552.19354	-813.7746	403.6405	526.23401	-796.65527	324.18216	276.233	-813.99963	342.14996	214.25215	-801.86066	374.56516	270.89468	-806.7182	346.40674	72.82196	-775.81372	308.86649	81.967201	-708.46857	384.77826	31.51985	-729.75629	211.36922	29.928968	-817.77722	182.66679	44.042702	-756.36298	190.47279	40.010155	-787.78552	183.17673	923.58527	-403.48166	228.7883	938.66443	-388.82117	164.8792	982.55969	-409.14551	262.10611	611.96674	-344.79672	223.00981	592.68048	-902.18427	221.50127	587.46277	-839.09448	223.92265	513.56775	-839.59418	163.20555	991.60089	-855.42133	181.44775	932.99548	-867.59125	209.03052	1007.5717	-864.86945
1178	5.88	-14.39979	1396.9382	-675.22797	-7.540997	1385.3627	-606.11554	27.433933	1351.5142	-736.2049	314.81134	494.14719	-1733.444	194.89828	564.15094	484.67572	518.11926	961.82159	-650.89062	512.01434	964.68079	-577.7998	506.74832	972.00476	-615.7984	137.12851	1227.8079	-630.71942	92.875328	1078.6135	-639.59845	368.2995	1100.7098	-625.76776	86.910637	1088.6039	-788.65155	80.289482	1095.2657	-469.85236	393.96066	596.76263	-412.45883	384.25882	532.30267	-425.94107	339.84296	555.91559	-415.15732	312.40594	239.03627	-412.68463	363.71533	234.43846	-413.07104	333.84354	176.84631	-418.79422	327.81277	72.879066	-502.75983	350.57767	71.499878	-429.40234	388.02591	35.826485	-472.92032	190.96407	44.538364	-450.57675	222.29269	28.334539	-376.3006	194.33446	41.91246	-415.77835	416.07056	588.6908	-810.50977	361.56924	552.34784	-813.76984	403.14474	526.52875	-796.65845	323.93045	276.22632	-813.9505	341.89804	214.29523	-801.85693	374.31244	270.9317	-806.72131	346.38019	72.833961	-775.78247	308.83395	81.942108	-708.41772	384.78467	31.539816	-729.74109	211.42035	29.808111	-817.82544	182.64348	44.038185	-756.3493	190.45781	40.035999	-787.76392	183.81091	927.08234	-403.46857	229.51663	941.87903	-388.78064	165.80244	986.14661	-409.10483	261.47009	614.86633	-344.66016	222.74608	595.70453	-902.18671	221.45412	590.70221	-839.04437	223.73853	516.67993	-839.56769	164.0425	994.97131	-855.43146	182.04399	936.3537	-867.57751	209.90802	1010.8378	-864.84875
